<svg xmlns="http://www.w3.org/2000/svg" viewBox="0 0 32 32">
  <rect width="32" height="32" rx="6" fill="#0f172a"/>
  <g transform="translate(4 4) scale(0.75)" fill="none">
    <path d="M18.5 3.5c-1.5.5-3.2 1.6-4.8 3.2-1.6 1.6-2.7 3.3-3.2 4.8L5 14l4 4-1 5 5-1 4 4 2.5-5.5c1.5-.5 3.2-1.6 4.8-3.2 1.6-1.6 2.7-3.3 3.2-4.8L29 3l-10.5 .5z" stroke="white" stroke-width="2.2" stroke-linecap="round" stroke-linejoin="round"/>
    <circle cx="21.5" cy="10.5" r="2" stroke="white" stroke-width="2.2"/>
    <path d="M6.5 21.5c-1 1-2 4-2 4s3-1 4-2" stroke="white" stroke-width="2.2" stroke-linecap="round" stroke-linejoin="round"/>
  </g>
</svg>
