<svg width="32" height="32" viewBox="0 0 32 32" fill="none" xmlns="http://www.w3.org/2000/svg">
<g clip-path="url(#clip0_2124_10462)">
<path fill-rule="evenodd" clip-rule="evenodd" d="M24.3444 18.0149V12.9475C24.3444 12.6155 24.1638 12.3089 23.8745 12.1452L7.70947 3.05238V2.12327C7.70947 1.77053 8.09138 1.54921 8.39922 1.72212L25.3952 11.2852C25.6868 11.4489 25.8651 11.7555 25.8651 12.0875V18.0841C25.8651 18.4368 25.4831 18.6581 25.1753 18.4852L24.3421 18.0172L24.3444 18.0149ZM20.0555 20.4864L18.5325 19.6287V29.8397L19.3657 30.3077C19.6735 30.4806 20.0555 30.2593 20.0555 29.9065V20.4841V20.4864Z" fill="#1C1C1C"/>
<path fill-rule="evenodd" clip-rule="evenodd" d="M27.2576 16.3551V11.2877C27.2576 10.9557 27.077 10.6491 26.7877 10.4854L10.625 1.39257V0.461161C10.625 0.108423 11.0069 -0.112903 11.3147 0.0600081L28.3107 9.62312C28.6024 9.78681 28.7806 10.0934 28.7806 10.4254V16.422C28.7806 16.7747 28.3987 16.996 28.0908 16.8231L27.2576 16.3551ZM22.7094 21.9436L21.4457 21.2381V29.4548L22.2558 29.9067C22.5636 30.0796 22.9455 29.856 22.9455 29.5055V22.3447C22.9455 22.1787 22.8552 22.0243 22.7094 21.9436Z" fill="#1C1C1C"/>
<path d="M22.9579 13.7176V19.7141C22.9579 20.0668 22.576 20.2882 22.2682 20.1152L17.4909 17.4271C17.3358 17.3395 17.146 17.4501 17.146 17.6276V31.5389C17.146 31.8916 16.7641 32.1129 16.4563 31.94L11.0865 28.9175C10.7948 28.7539 10.6166 28.4472 10.6166 28.1152V13.8305C10.6166 13.6645 10.5263 13.5101 10.3805 13.4294L5.26991 10.5544C4.97827 10.3908 4.80005 10.0841 4.80005 9.75213V3.75559C4.80005 3.40286 5.18195 3.18153 5.48979 3.35444L22.4858 12.9176C22.7774 13.0812 22.9556 13.3879 22.9556 13.7199L22.9579 13.7176Z" fill="#1C1C1C"/>
</g>
<defs>
<clipPath id="clip0_2124_10462">
<rect width="32" height="32" fill="white"/>
</clipPath>
</defs>
</svg>




