<svg width="32" height="32" viewBox="0 0 32 32" fill="none" xmlns="http://www.w3.org/2000/svg">
<g clip-path="url(#clip0_6010_1562)">
<mask id="mask0_6010_1562" style="mask-type:luminance" maskUnits="userSpaceOnUse" x="0" y="0" width="32" height="32">
<path d="M32 0H0V32H32V0Z" fill="white"/>
</mask>
<g mask="url(#mask0_6010_1562)">
<path fill-rule="evenodd" clip-rule="evenodd" d="M24.3459 18.0149V12.9475C24.3459 12.6155 24.1653 12.3089 23.876 12.1452L7.71094 3.05238V2.12327C7.71094 1.77053 8.09285 1.54921 8.40069 1.72212L25.3967 11.2852C25.6883 11.4489 25.8666 11.7555 25.8666 12.0875V18.0841C25.8666 18.4368 25.4846 18.6581 25.1768 18.4852L24.3436 18.0172L24.3459 18.0149ZM20.057 20.4864L18.534 19.6287V29.8397L19.3672 30.3077C19.675 30.4806 20.057 30.2593 20.057 29.9065V20.4841V20.4864Z" fill="white"/>
<path fill-rule="evenodd" clip-rule="evenodd" d="M27.2576 16.3551V11.2877C27.2576 10.9557 27.077 10.6491 26.7877 10.4854L10.625 1.39257V0.461161C10.625 0.108423 11.0069 -0.112903 11.3147 0.0600083L28.3107 9.62312C28.6024 9.78681 28.7806 10.0934 28.7806 10.4254V16.422C28.7806 16.7747 28.3987 16.996 28.0908 16.8231L27.2576 16.3551ZM22.7094 21.9436L21.4457 21.2381V29.4548L22.2558 29.9067C22.5636 30.0796 22.9455 29.856 22.9455 29.5055V22.3447C22.9455 22.1787 22.8552 22.0243 22.7094 21.9436Z" fill="white"/>
<path d="M22.9586 13.7176V19.7141C22.9586 20.0668 22.5767 20.2882 22.2689 20.1152L17.4916 17.4271C17.3365 17.3395 17.1467 17.4501 17.1467 17.6276V31.5389C17.1467 31.8916 16.7648 32.1129 16.457 31.94L11.0872 28.9175C10.7955 28.7539 10.6173 28.4472 10.6173 28.1152V13.8305C10.6173 13.6645 10.527 13.5101 10.3812 13.4294L5.27064 10.5544C4.979 10.3908 4.80078 10.0841 4.80078 9.75213V3.75559C4.80078 3.40286 5.18268 3.18153 5.49052 3.35444L22.4865 12.9176C22.7781 13.0812 22.9563 13.3879 22.9563 13.7199L22.9586 13.7176Z" fill="white"/>
</g>
</g>
<defs>
<clipPath id="clip0_6010_1562">
<rect width="32" height="32" fill="white"/>
</clipPath>
</defs>
</svg>
