<svg width="141" height="32" viewBox="0 0 141 32" fill="none" xmlns="http://www.w3.org/2000/svg">
<g clip-path="url(#clip0_4603_781)">
<mask id="mask0_4603_781" style="mask-type:luminance" maskUnits="userSpaceOnUse" x="0" y="0" width="141" height="32">
<path d="M141 0H0V31.6854H141V0Z" fill="white"/>
</mask>
<g mask="url(#mask0_4603_781)">
<path fill-rule="evenodd" clip-rule="evenodd" d="M19.3522 17.8385V12.8209C19.3522 12.4922 19.1734 12.1886 18.887 12.0265L2.88086 3.02308V2.10311C2.88086 1.75384 3.25901 1.53469 3.56382 1.7059L20.3927 11.175C20.6815 11.3371 20.8579 11.6407 20.8579 11.9694V17.907C20.8579 18.2563 20.4798 18.4754 20.175 18.3042L19.3499 17.8408L19.3522 17.8385ZM15.1055 20.2857L13.5974 19.4365V29.547L14.4225 30.0105C14.7273 30.1817 15.1055 29.9625 15.1055 29.6132V20.2834V20.2857Z" fill="black"/>
<path fill-rule="evenodd" clip-rule="evenodd" d="M22.2366 16.1943V11.1767C22.2366 10.848 22.0579 10.5444 21.7714 10.3823L5.76758 1.37888V0.456627C5.76758 0.107357 6.14573 -0.111793 6.45054 0.0594183L23.2794 9.52851C23.5682 9.69059 23.7447 9.99421 23.7447 10.3229V16.2605C23.7447 16.6098 23.3665 16.8289 23.0617 16.6577L22.2366 16.1943ZM17.7332 21.7278L16.4819 21.0293V29.1652L17.284 29.6127C17.5888 29.7839 17.967 29.5625 17.967 29.2155V22.1251C17.967 21.9607 17.8776 21.8077 17.7332 21.7278Z" fill="black"/>
<path d="M17.9794 13.5824V19.5199C17.9794 19.8692 17.6012 20.0884 17.2964 19.9172L12.5661 17.2554C12.4125 17.1687 12.2246 17.2782 12.2246 17.454V31.2285C12.2246 31.5777 11.8464 31.7969 11.5416 31.6257L6.2246 28.6329C5.93583 28.4708 5.75936 28.1672 5.75936 27.8385V13.6942C5.75936 13.5299 5.66998 13.3769 5.52559 13.297L0.465241 10.4503C0.176471 10.2883 0 9.98466 0 9.65593V3.71835C0 3.36908 0.378151 3.14993 0.682964 3.32114L17.5118 12.7902C17.8006 12.9523 17.9771 13.2559 17.9771 13.5846L17.9794 13.5824Z" fill="black"/>
<path d="M99.2116 30.0802C99.7181 30.0802 100.128 29.6715 100.128 29.167V22.7158C100.128 22.2113 99.7181 21.8027 99.2116 21.8027H92.8312C92.5791 21.8027 92.3728 21.5972 92.3728 21.3461V9.35453C92.3728 8.85003 91.9626 8.44141 91.4561 8.44141H83.5906C83.0841 8.44141 82.6738 8.85003 82.6738 9.35453V29.167C82.6738 29.6715 83.0841 30.0802 83.5906 30.0802H99.2116Z" fill="black"/>
<path d="M119.403 30.0802C119.91 30.0802 120.32 29.6715 120.32 29.167V22.7158C120.32 22.2113 119.91 21.8027 119.403 21.8027H113.023C112.771 21.8027 112.564 21.5972 112.564 21.3461V9.35453C112.564 8.85003 112.154 8.44141 111.648 8.44141H103.782C103.275 8.44141 102.865 8.85003 102.865 9.35453V29.167C102.865 29.6715 103.275 30.0802 103.782 30.0802H119.403Z" fill="black"/>
<path d="M59.4317 9.35258V15.8038C59.4317 16.3083 59.0215 16.7169 58.515 16.7169H52.845C52.5929 16.7169 52.3867 16.9224 52.3867 17.1735V29.1651C52.3867 29.6696 51.9764 30.0782 51.4699 30.0782H43.6044C43.0979 30.0782 42.6876 29.6696 42.6876 29.1651V17.1735C42.6876 16.9224 42.4814 16.7169 42.2293 16.7169H36.5593C36.0528 16.7169 35.6426 16.3083 35.6426 15.8038V9.35258C35.6426 8.84808 36.0528 8.43945 36.5593 8.43945H58.5127C59.0192 8.43945 59.4294 8.84808 59.4294 9.35258H59.4317Z" fill="black"/>
<path d="M80.2947 28.8523L73.0159 9.03983C72.8829 8.67915 72.5392 8.43945 72.1541 8.43945H65.5491C65.1641 8.43945 64.8203 8.67915 64.6874 9.03983L57.4085 28.8523C57.1885 29.4481 57.6331 30.0782 58.2703 30.0782H65.9639C66.3742 30.0782 66.734 29.8065 66.8463 29.4139L67.3528 27.6287C67.4078 27.4324 67.5888 27.2955 67.7928 27.2955H69.9082C70.1144 27.2955 70.2932 27.4301 70.3482 27.6287L70.8547 29.4139C70.967 29.8065 71.3268 30.0782 71.737 30.0782H79.4307C80.0678 30.0782 80.5101 29.4481 80.2924 28.8523H80.2947ZM70.3413 21.7391H67.3642C67.0457 21.7391 66.8234 21.4241 66.9334 21.125L68.4231 17.0845C68.5697 16.685 69.1358 16.685 69.2848 17.0845L70.7745 21.125C70.8845 21.4241 70.6622 21.7391 70.3436 21.7391H70.3413Z" fill="black"/>
<path d="M140.082 8.44141H132.602C132.221 8.44141 131.88 8.67425 131.745 9.02809L129.529 14.8104C129.38 15.2031 128.823 15.2031 128.671 14.8104L126.455 9.02809C126.32 8.67425 125.979 8.44141 125.598 8.44141H118.118C117.412 8.44141 116.972 9.20158 117.322 9.81109L124.127 21.5698C124.207 21.7091 124.248 21.8666 124.248 22.0264V29.167C124.248 29.6715 124.658 30.0802 125.165 30.0802H133.03C133.537 30.0802 133.947 29.6715 133.947 29.167V22.0264C133.947 21.8666 133.988 21.7091 134.069 21.5698L140.873 9.81109C141.226 9.20158 140.784 8.44141 140.078 8.44141H140.082Z" fill="black"/>
</g>
</g>
<defs>
<clipPath id="clip0_4603_781">
<rect width="141" height="32" fill="white"/>
</clipPath>
</defs>
</svg>
